<?xml version="1.0" encoding="UTF-8" standalone="no"?>

<svg
   width="100"
   height="100"
   viewBox="0 0 100 100"
   version="1.1"
   id="main-svg"
   xmlns="http://www.w3.org/2000/svg"
   xmlns:xlink="http://www.w3.org/1999/xlink">

   <defs>
     <linearGradient id="linearGradient2">
       <stop offset="0" stop-color="#05efff"/>
       <stop offset="1" stop-color="#078a93"/>
     </linearGradient>
     <radialGradient
        xlink:href="#linearGradient2"
        id="radialGradient3"
        cx="10"
        cy="27.5"
        fx="10"
        fy="27.5"
        r="26.25"
        gradientUnits="userSpaceOnUse"
        gradientTransform="matrix(1.05,0,0,1.05,39.5,0.125)" />
     <filter id="filter5" x="-0.27428571" y="-0.28" width="1.5485714" height="1.56"
             style="color-interpolation-filters:sRGB;">
       <feGaussianBlur stdDeviation="4 7" result="blur"/>
     </filter>
     <filter id="filter6" x="-0.61714286" y="-0.18461538" width="2.2342857" height="1.3692308"
             style="color-interpolation-filters:sRGB;">
       <feGaussianBlur stdDeviation="9 5" result="blur"/>
     </filter>
     <clipPath id="clipPath7" clipPathUnits="userSpaceOnUse">
       <path
          d="m 30,95 c -2,0 -4.5,-0.5 -5.5,-3.5 -1,-3 -2,-6.5 -2,-14 0,-13.75 2.352519,-20.489212 7.5,-32.5 h 40 c 5.147481,12.010788 7.5,18.75 7.5,32.5 0,7.5 -1,11 -2,14 -1,3 -3.5,3.5 -5.5,3.5 z"
          style="fill:none;stroke:#de6363;stroke-width:2.5;stroke-linecap:butt;stroke-linejoin:miter;"/>
     </clipPath>
   </defs>
   <path
      d="m 18.75,78.5 c -4.5,0 -6,-2 -6,-5 0,-3 3,-11 7,-16.5 4,-5.5 9.5,-11 9.5,-15 0,-4 2,-1.5 2,-1.5 L 30.75,77 c 0,0 -7.5,1.5 -12,1.5 z"
      style="fill:#000000;" />
   <path
      d="m 81.25,78.5 c 4.5,0 6,-2 6,-5 0,-3 -3,-11 -7,-16.5 -4,-5.5 -9.5,-11 -9.5,-15 0,-4 -2,-1.5 -2,-1.5 l 0.5,36.5 c 0,0 7.5,1.5 12,1.5 z"
      style="fill:#000000;" />
   <path
      d="m 30,95 c -2,0 -4.5,-0.5 -5.5,-3.5 -1,-3 -2,-6.5 -2,-14 0,-13.75 2.352519,-20.489212 7.5,-32.5 h 40 c 5.147481,12.010788 7.5,18.75 7.5,32.5 0,7.5 -1,11 -2,14 -1,3 -3.5,3.5 -5.5,3.5 z"
      style="fill:#165356;stroke:none;" />
   <path
      d="m 37.5,25 c 0,0 -5,40 -5,50 0,10 10,15 17.5,15 7.5,0 17.5,-5 17.5,-15 0,-10 -5,-50 -5,-50 z"
      style="fill:#05efff;filter:url(#filter6);"
      clip-path="url(#clipPath7)" />
   <path
      d="m 30,95 c -2,0 -4.5,-0.5 -5.5,-3.5 -1,-3 -2,-6.5 -2,-14 0,-13.75 2.352519,-20.489212 7.5,-32.5 h 40 c 5.147481,12.010788 7.5,18.75 7.5,32.5 0,7.5 -1,11 -2,14 -1,3 -3.5,3.5 -5.5,3.5 z"
      style="fill:none;stroke:#000000;stroke-width:2.5;" />
   <circle
      cx="50"
      cy="29"
      r="26.25"
      style="fill:url(#radialGradient3);stroke:#000000;stroke-width:2.5;" />
</svg>
