<?xml version="1.0" encoding="UTF-8" standalone="no"?>
<!-- Created with Inkscape (http://www.inkscape.org/) -->

<svg
   width="100"
   height="100"
   viewBox="0 0 100 100"
   version="1.1"
   id="main-svg"
   inkscape:export-filename="D:\temp\temp.png"
   xml:space="preserve"
   inkscape:version="1.3.2 (091e20e, 2023-11-25, custom)"
   sodipodi:docname="QuinnThing2.svg"
   xmlns:inkscape="http://www.inkscape.org/namespaces/inkscape"
   xmlns:sodipodi="http://sodipodi.sourceforge.net/DTD/sodipodi-0.dtd"
   xmlns:xlink="http://www.w3.org/1999/xlink"
   xmlns="http://www.w3.org/2000/svg"
   xmlns:svg="http://www.w3.org/2000/svg"><defs
     id="defs1"><linearGradient
       id="linearGradient10"
       inkscape:collect="always"><stop
         style="stop-color:#db050e;stop-opacity:1;"
         offset="0"
         id="stop9" /><stop
         style="stop-color:#600207;stop-opacity:1;"
         offset="1"
         id="stop10" /></linearGradient><linearGradient
       id="linearGradient2"
       inkscape:collect="always"><stop
         style="stop-color:#05efff;stop-opacity:1;"
         offset="0"
         id="stop2" /><stop
         style="stop-color:#078a93;stop-opacity:1;"
         offset="1"
         id="stop3" /></linearGradient><radialGradient
       inkscape:collect="always"
       xlink:href="#linearGradient10"
       id="radialGradient3"
       cx="10"
       cy="27.5"
       fx="10"
       fy="27.5"
       r="26.25"
       gradientUnits="userSpaceOnUse"
       gradientTransform="matrix(1.05,0,0,1.05,39.5,0.125)" /><radialGradient
       inkscape:collect="always"
       xlink:href="#linearGradient2"
       id="radialGradient3-8"
       cx="10"
       cy="27.5"
       fx="10"
       fy="27.5"
       r="26.25"
       gradientUnits="userSpaceOnUse"
       gradientTransform="matrix(1.05,0,0,1.05,39.5,0.125)" /><filter
       style="color-interpolation-filters:sRGB;"
       inkscape:label="Blur"
       id="filter5"
       x="-0.27428571"
       y="-0.28"
       width="1.5485714"
       height="1.56"><feGaussianBlur
         stdDeviation="4 7"
         result="blur"
         id="feGaussianBlur5" /></filter><filter
       style="color-interpolation-filters:sRGB;"
       inkscape:label="Blur"
       id="filter6"
       x="-0.61714286"
       y="-0.18461538"
       width="2.2342857"
       height="1.3692308"><feGaussianBlur
         stdDeviation="9 5"
         result="blur"
         id="feGaussianBlur6" /></filter><clipPath
       clipPathUnits="userSpaceOnUse"
       id="clipPath7"><path
         style="font-variation-settings:normal;vector-effect:none;fill:none;fill-opacity:1;fill-rule:evenodd;stroke:#de6363;stroke-width:2.5;stroke-linecap:butt;stroke-linejoin:miter;stroke-miterlimit:4;stroke-dasharray:none;stroke-dashoffset:0;stroke-opacity:1;-inkscape-stroke:none;stop-color:#000000"
         d="m 30,95 c -2,0 -4.5,-0.5 -5.5,-3.5 -1,-3 -2,-6.5 -2,-14 0,-13.75 2.352519,-20.489212 7.5,-32.5 h 40 c 5.147481,12.010788 7.5,18.75 7.5,32.5 0,7.5 -1,11 -2,14 -1,3 -3.5,3.5 -5.5,3.5 z"
         id="path7"
         sodipodi:nodetypes="czsccszcc" /></clipPath></defs><sodipodi:namedview
     id="base"
     pagecolor="#ffffff"
     bordercolor="#666666"
     borderopacity="1.0"
     inkscape:pageopacity="0.0"
     inkscape:pageshadow="2"
     inkscape:zoom="4.9497475"
     inkscape:cx="27.779195"
     inkscape:cy="48.184276"
     inkscape:document-units="px"
     showgrid="true"
     units="px"
     inkscape:current-layer="main-svg"
     inkscape:showpageshadow="2"
     inkscape:pagecheckerboard="0"
     inkscape:deskcolor="#d1d1d1"><inkscape:grid
       type="xygrid"
       id="main-grid"
       spacingx="0.5"
       spacingy="0.5"
       originx="0"
       originy="0"
       units="px"
       visible="true" /></sodipodi:namedview><path
     style="font-variation-settings:normal;vector-effect:none;fill:#000000;fill-opacity:1;fill-rule:evenodd;stroke:none;stroke-width:0.5;stroke-linecap:butt;stroke-linejoin:miter;stroke-miterlimit:4;stroke-dasharray:none;stroke-dashoffset:0;stroke-opacity:1;-inkscape-stroke:none;stop-color:#000000"
     d="m 18.75,78.5 c -4.5,0 -6,-2 -6,-5 0,-3 3,-11 7,-16.5 4,-5.5 9.5,-11 9.5,-15 0,-4 2,-1.5 2,-1.5 L 30.75,77 c 0,0 -7.5,1.5 -12,1.5 z"
     id="path2"
     sodipodi:nodetypes="zsssccz" /><path
     style="font-variation-settings:normal;vector-effect:none;fill:#000000;fill-opacity:1;fill-rule:evenodd;stroke:none;stroke-width:0.5;stroke-linecap:butt;stroke-linejoin:miter;stroke-miterlimit:4;stroke-dasharray:none;stroke-dashoffset:0;stroke-opacity:1;-inkscape-stroke:none;stop-color:#000000"
     d="m 81.25,78.5 c 4.5,0 6,-2 6,-5 0,-3 -3,-11 -7,-16.5 -4,-5.5 -9.5,-11 -9.5,-15 0,-4 -2,-1.5 -2,-1.5 l 0.5,36.5 c 0,0 7.5,1.5 12,1.5 z"
     id="path3"
     sodipodi:nodetypes="zsssccz" /><path
     style="font-variation-settings:normal;vector-effect:none;fill:#2a0103;fill-opacity:1;fill-rule:evenodd;stroke:none;stroke-width:2.5;stroke-linecap:butt;stroke-linejoin:miter;stroke-miterlimit:4;stroke-dasharray:none;stroke-dashoffset:0;stroke-opacity:1;-inkscape-stroke:none;stop-color:#000000"
     d="m 30,95 c -2,0 -4.5,-0.5 -5.5,-3.5 -1,-3 -2,-6.5 -2,-14 0,-13.75 2.352519,-20.489212 7.5,-32.5 h 40 c 5.147481,12.010788 7.5,18.75 7.5,32.5 0,7.5 -1,11 -2,14 -1,3 -3.5,3.5 -5.5,3.5 z"
     id="path4"
     sodipodi:nodetypes="czsccszcc" /><path
     style="font-variation-settings:normal;vector-effect:none;fill:#db050e;fill-opacity:1;fill-rule:evenodd;stroke:none;stroke-width:0.5;stroke-linecap:butt;stroke-linejoin:miter;stroke-miterlimit:4;stroke-dasharray:none;stroke-dashoffset:0;stroke-opacity:1;-inkscape-stroke:none;filter:url(#filter6);stop-color:#000000"
     d="m 37.5,25 c 0,0 -5,40 -5,50 0,10 10,15 17.5,15 7.5,0 17.5,-5 17.5,-15 0,-10 -5,-50 -5,-50 z"
     id="path5"
     sodipodi:nodetypes="cssscc"
     clip-path="url(#clipPath7)" /><path
     style="font-variation-settings:normal;vector-effect:none;fill:none;fill-opacity:1;fill-rule:evenodd;stroke:#000000;stroke-width:2.5;stroke-linecap:butt;stroke-linejoin:miter;stroke-miterlimit:4;stroke-dasharray:none;stroke-dashoffset:0;stroke-opacity:1;-inkscape-stroke:none;stop-color:#000000"
     d="m 30,95 c -2,0 -4.5,-0.5 -5.5,-3.5 -1,-3 -2,-6.5 -2,-14 0,-13.75 2.352519,-20.489212 7.5,-32.5 h 40 c 5.147481,12.010788 7.5,18.75 7.5,32.5 0,7.5 -1,11 -2,14 -1,3 -3.5,3.5 -5.5,3.5 z"
     id="path8"
     sodipodi:nodetypes="czsccszcc" /><circle
     style="font-variation-settings:normal;fill:url(#radialGradient3);fill-rule:evenodd;stroke:#000000;stroke-width:2.5;stroke-linecap:butt;stroke-linejoin:miter;stroke-miterlimit:4;stroke-dasharray:none;stroke-dashoffset:0;stroke-opacity:1;stop-color:#000000"
     id="path1"
     cx="50"
     cy="29"
     r="26.25" /></svg>
